<svg xmlns="http://www.w3.org/2000/svg" viewBox="0 0 244.27 105.81"><defs><style>.cls-1{fill:#2edaf4;}.cls-2{fill:#30c9f2;}.cls-3{fill:rgb(26, 67, 168);}</style></defs><title>Asset 10</title><g id="Layer_2" data-name="Layer 2"><g id="Layer_1-2" data-name="Layer 1"><polygon class="cls-1" points="206.07 75 201.74 83.98 206.73 87.56 211.81 85.4 210.14 78.99 206.07 75"/><polygon class="cls-1" points="163.28 78.66 158.95 87.65 163.94 91.23 169.02 89.06 167.36 82.66 163.28 78.66"/><path class="cls-1" d="M241.39,54.61c0,4.06-2.73,8.18-7.78,8.18H197.22l1-.89a15.64,15.64,0,0,0,5.36-11.78,15.45,15.45,0,0,0-.42-3.59l0-.15.05-.14a9.06,9.06,0,0,1,17.62,3,9.2,9.2,0,0,1-.33,2.44,1.13,1.13,0,0,0-.05.32,1.19,1.19,0,0,0,2.33.32,11.56,11.56,0,0,0,.43-3.08,11.44,11.44,0,0,0-6.8-10.45l-.48-.21.23-.47A9.06,9.06,0,0,1,233.36,42a8.89,8.89,0,0,1-.08,1.15l-.06.47-.5,0-.5,0a1.15,1.15,0,0,0-.84.33,1.18,1.18,0,0,0-.37.83h0a1.19,1.19,0,0,0,1.16,1.21c6.8.15,9.22,4.71,9.22,8.57Zm-19-23.9a11.54,11.54,0,0,0-8.66,6.85l-.15.35-.38,0a11.43,11.43,0,0,0-10.78,4.69l-.46.64-.39-.69a15.71,15.71,0,0,0-7.31-6.64l-.27-.12,0-.29a15,15,0,0,1-.09-1.64,14.7,14.7,0,0,1,28.93-3.72l.14.53Zm-21.2,19.41A13.2,13.2,0,0,1,192,62.73l0,0-.08,0H143.34a11.63,11.63,0,0,1-11.12-7.08A10.58,10.58,0,0,1,134.73,44a1.18,1.18,0,0,0,0-1.68,1.2,1.2,0,0,0-1.68,0,14.27,14.27,0,0,0-1.56,1.82l-.31.42-.41-.32a11.85,11.85,0,0,1-4.29-7,12,12,0,0,1-.24-2.38,11.74,11.74,0,0,1,2-6.53A11.87,11.87,0,0,1,144.67,25a1.19,1.19,0,0,0,1.84-1,1.19,1.19,0,0,0-.53-1,14,14,0,0,0-4.72-2L141,21l-.09-.29a9.66,9.66,0,0,1-.34-2.5A9.38,9.38,0,1,1,152.8,27.1a11.43,11.43,0,0,0-8.6,11,11.43,11.43,0,0,0,14.2,11.11,1.18,1.18,0,0,0,.9-1.15,1.35,1.35,0,0,0,0-.28,1.19,1.19,0,0,0-1.44-.87,9.07,9.07,0,0,1-11-6.59,9.22,9.22,0,0,1-.27-2.21,9.1,9.1,0,0,1,1.29-4.65,9,9,0,0,1,5.55-4.12l.09,0h0a11.72,11.72,0,0,0,7.58-14.77,11.88,11.88,0,0,0-3.14-5l-.26-.24.15-.33A10.34,10.34,0,0,1,177.4,15.5l-.11.48-.48-.09A10.11,10.11,0,0,0,165.48,22a1.17,1.17,0,0,0-.09.45,1.18,1.18,0,0,0,2.28.44,7.74,7.74,0,0,1,14.91,2.89,7.65,7.65,0,0,1-.57,2.9,1.32,1.32,0,0,0-.08.44,1.18,1.18,0,0,0,2.28.44A10.08,10.08,0,0,0,179.84,17l-.34-.19.11-.38a12.81,12.81,0,0,0,.42-3.24,12.58,12.58,0,0,0-.62-3.87l-.09-.29.21-.22a11.19,11.19,0,0,1,18.68,11.34l-.05.14-.12.09a17,17,0,0,0-6.51,13.41v.48l0,.63-.62-.12a15.6,15.6,0,0,0-18.57,15.34,15.77,15.77,0,0,0,.74,4.76,1.18,1.18,0,0,0,1.49.76,1.17,1.17,0,0,0,.83-1.12,1.09,1.09,0,0,0-.06-.36,13.25,13.25,0,0,1,25.23-8.1l.07.25,0,.15v.05a1.12,1.12,0,0,0,.1.39l0,0v0A13.11,13.11,0,0,1,201.22,50.12Z"/><polygon class="cls-1" points="186.26 91.17 181.93 100.16 186.92 103.74 192 101.58 190.33 95.17 186.26 91.17"/><path class="cls-2" d="M209.1,80s.11,6.27-4.55,5.77,4.94,1.56,4.94,1.56L210.6,82Z"/><path class="cls-2" d="M182.81,30.4s-1,1.44-5-.5c0,0,3.38-5.48-.93-8.95s-8.39.41-8.39.41,3.49-7.44,10.08-3.63S183.05,29.64,182.81,30.4Z"/><path class="cls-2" d="M144.31,34.38c1.71-10.51,11.52-8.93,10.62-17.84-.74-7.29-10.21-6.28-11.87-4l.71-3.23s12.17-6.46,16,5.06-2.93,11.74-5.41,13.09S144.31,34.38,144.31,34.38Z"/><path class="cls-2" d="M171.49,17.22S175.21,9.78,168.56,6s-10.48,2.37-10.48,2.37.34-7.37,8.23-6.88,14.2,5.08,12.28,15.33Z"/><path class="cls-2" d="M195,24.54s3.13-10.84-4.53-15S179,10.8,179,10.8a2.87,2.87,0,0,1,.9-4c2.37-1.58,9.49-4.62,15.57-.78s4.83,12.84,4.15,14.31S195,24.54,195,24.54Z"/><path class="cls-2" d="M230.57,44.27S232,39.1,226.17,36c-4.31-2.31-7.38-.54-7.38-.54s1.22-3.34,6-3.77,10.88,4.74,9.19,11.75Z"/><path class="cls-2" d="M217.24,33.67s.53-9.54-9.69-10.36c-7.76-.63-12.35,5.11-12.94,8.08l-.92-2.34s3.83-11.38,15-11,14.65,7.66,15,13.3Z"/><path class="cls-2" d="M221.19,52.38a8.05,8.05,0,0,1-5.86,0s3.15-13.3-8.34-11.05C207,41.33,221,32.32,221.19,52.38Z"/><path class="cls-2" d="M143.34,62.79h48.57l.08,0,0,0A13.2,13.2,0,0,0,200.84,47v0l0,0a1.12,1.12,0,0,1-.1-.39v-.05l0-.15-.07-.25a13.25,13.25,0,0,0-25.85,3.39l.5.29c1-4.14,5-9.78,13.49-8.71,10.4,1.32,10.82,17.41-3.89,17.41h-51A12,12,0,0,0,143.34,62.79Z"/><path class="cls-2" d="M233.27,46l-.38.47c8,1.87,5.2,12-4.49,12H201.17a15.77,15.77,0,0,1-2.94,3.44l-1,.89h36.39c5,0,7.73-4.12,7.78-8.18V54.5C241.39,50.86,239.23,46.59,233.27,46Z"/><path class="cls-2" d="M166.32,83.67s.11,6.27-4.55,5.77S166.7,91,166.7,91l1.11-5.32Z"/><path class="cls-2" d="M189.29,96.18s.11,6.27-4.55,5.77,4.94,1.55,4.94,1.55l1.11-5.32Z"/><path class="cls-3" d="M171.6.72a13.23,13.23,0,0,0-16.09,6.55,12.16,12.16,0,0,0-9.33-.76,12.28,12.28,0,0,0-8.35,13.68,14.72,14.72,0,0,0-8.37,26.63,13.31,13.31,0,0,0,.1,10,14.45,14.45,0,0,0,13.78,8.86h90.27c6.84,0,10.59-5.68,10.65-11,0,0,0-.09,0-.13a11.11,11.11,0,0,0-8.15-10.88,11.39,11.39,0,0,0,.11-1.64,12,12,0,0,0-8.64-11.48,12.37,12.37,0,0,0-1.79-.37,17.55,17.55,0,0,0-24.17-12.46c0-.36,0-.72,0-1.08A14.08,14.08,0,0,0,178.36,6,13.15,13.15,0,0,0,171.6.72Zm55.06,33a8.57,8.57,0,0,1,6.12,9.32l-.55,0a1.69,1.69,0,1,0-.07,3.38c6.45.14,8.72,4.41,8.72,8.06v.1c0,3.82-2.55,7.68-7.27,7.68h-35a16.17,16.17,0,0,0,5.09-15.87A8.55,8.55,0,0,1,220,51.5a1.69,1.69,0,0,0,3.26.92,12,12,0,0,0-6.65-14.13A8.57,8.57,0,0,1,226.66,33.76Zm-4.32-3.55a12,12,0,0,0-9,7.15A12,12,0,0,0,202,42.25a16.1,16.1,0,0,0-7.55-6.85,14.2,14.2,0,0,1,27.85-5.19ZM176.15,8.9a9.79,9.79,0,0,1,.75,6.49A10.62,10.62,0,0,0,165,21.82a1.71,1.71,0,0,0,.93,2.21,1.69,1.69,0,0,0,2.2-.94A7.22,7.22,0,0,1,181.49,23a7.12,7.12,0,0,1,0,5.53,1.69,1.69,0,1,0,3.14,1.26,10.5,10.5,0,0,0,.77-4,10.68,10.68,0,0,0-.84-4.14,10.54,10.54,0,0,0-4.52-5.07,13,13,0,0,0-.2-7.39A10.69,10.69,0,0,1,197.73,20,17.64,17.64,0,0,0,191,34.31a15.89,15.89,0,0,0-8,.47,16.14,16.14,0,0,0-10.43,20.27,1.69,1.69,0,1,0,3.22-1,12.74,12.74,0,0,1,24.26-7.78c0,.11.07.22.1.33a1.79,1.79,0,0,0,.15.56,12.75,12.75,0,0,1-8.48,15.13l-.05,0H143.34a11.13,11.13,0,0,1-10.65-6.76,10.08,10.08,0,0,1,2.39-11.17,1.69,1.69,0,1,0-2.36-2.41,14.26,14.26,0,0,0-1.62,1.88,11.33,11.33,0,0,1-2.44-15.19,11.36,11.36,0,0,1,15.73-3.18,1.69,1.69,0,1,0,1.87-2.82,14.51,14.51,0,0,0-4.89-2.09,8.87,8.87,0,0,1,17-5.08,8.89,8.89,0,0,1-5.72,11.16,11.93,11.93,0,0,0,5.87,23.13,1.69,1.69,0,0,0,1.28-1.64,2,2,0,0,0-.05-.41,1.7,1.7,0,0,0-2.05-1.23,8.55,8.55,0,0,1-9.4-12.7,8.44,8.44,0,0,1,5.26-3.89l.05,0,.06,0a12.25,12.25,0,0,0,4.65-20.59,9.83,9.83,0,0,1,17.83-.35Z"/><path class="cls-3" d="M170.77,86.5c0-3.3-4.6-8.6-5.53-9.63a1.76,1.76,0,0,0-1.26-.54,1.8,1.8,0,0,0-1.27.54c-.92,1-5.53,6.33-5.53,9.63a6.8,6.8,0,1,0,13.59,0Zm-10.19,0c0-1.08,1.6-3.61,3.4-5.86,1.8,2.26,3.4,4.81,3.4,5.86a3.4,3.4,0,0,1-6.8,0Z"/><path class="cls-3" d="M213.31,82.73c0-3.3-4.61-8.6-5.53-9.63a1.75,1.75,0,0,0-2.53,0c-.92,1-5.53,6.33-5.53,9.63a6.8,6.8,0,1,0,13.59,0Zm-10.19,0c0-1.08,1.59-3.61,3.39-5.86,1.81,2.26,3.4,4.81,3.4,5.86a3.4,3.4,0,1,1-6.79,0Z"/><path class="cls-3" d="M193.75,99c0-3.3-4.6-8.6-5.53-9.63a1.75,1.75,0,0,0-2.53,0c-.92,1-5.53,6.33-5.53,9.63a6.8,6.8,0,1,0,13.59,0Zm-10.19,0c0-1.08,1.59-3.61,3.4-5.86,1.8,2.26,3.4,4.81,3.4,5.86a3.4,3.4,0,0,1-6.8,0Z"/><path class="cls-3" d="M14.32,61.21a10.21,10.21,0,0,1-4.39.89,10.15,10.15,0,0,1-4.37-.89,9.35,9.35,0,0,1-3.1-2.33A9.77,9.77,0,0,1,.62,55.61,11.81,11.81,0,0,1,.64,48a10.33,10.33,0,0,1,1.88-3.37,9.4,9.4,0,0,1,3.14-2.38A9.87,9.87,0,0,1,10,41.34a10,10,0,0,1,4.35.89,9.13,9.13,0,0,1,3.1,2.35,9.59,9.59,0,0,1,1.87,3.33A12.14,12.14,0,0,1,20,51.74a12,12,0,0,1-.62,3.81,9.69,9.69,0,0,1-1.87,3.31A9.1,9.1,0,0,1,14.32,61.21ZM4.39,35.64a1.24,1.24,0,0,1,1.42-1.38h2a1.24,1.24,0,0,1,1.42,1.38v2a1.24,1.24,0,0,1-1.42,1.39h-2a1.24,1.24,0,0,1-1.42-1.39ZM14,55.78A5.27,5.27,0,0,0,15,54a6.61,6.61,0,0,0,.33-2.08A7.05,7.05,0,0,0,15,49.75a5.81,5.81,0,0,0-1-1.88,5.33,5.33,0,0,0-1.68-1.35A5,5,0,0,0,9.93,46a5.16,5.16,0,0,0-2.31.5A5.07,5.07,0,0,0,6,47.83a5.76,5.76,0,0,0-1,1.87,6.57,6.57,0,0,0,0,4.23,5.56,5.56,0,0,0,1,1.85,4.85,4.85,0,0,0,1.69,1.29,5.51,5.51,0,0,0,2.37.48,5.39,5.39,0,0,0,2.35-.48A4.74,4.74,0,0,0,14,55.78ZM12.75,39.07a1.25,1.25,0,0,1-1.43-1.39v-2a1.24,1.24,0,0,1,1.43-1.38h2a1.24,1.24,0,0,1,1.42,1.38v2a1.24,1.24,0,0,1-1.42,1.39Z"/><path class="cls-3" d="M23.87,45.54A1.36,1.36,0,0,1,25.41,44H27a1.36,1.36,0,0,1,1.54,1.54V62.1q0,4.23-1.59,6.27a6,6,0,0,1-5,2,13.57,13.57,0,0,1-2.66-.27C18.44,70,18,69.54,18,68.8a1.64,1.64,0,0,1,0-.23,1.68,1.68,0,0,1,.06-.27L18.41,67a1.37,1.37,0,0,1,1.46-1.2,2.12,2.12,0,0,1,.42,0,6.52,6.52,0,0,0,1.16.12,2.08,2.08,0,0,0,1.89-.85,6.12,6.12,0,0,0,.53-3Z"/><path class="cls-3" d="M39.39,62.1a16.65,16.65,0,0,1-3.14-.25,3.67,3.67,0,0,1-1.88-.93,3.61,3.61,0,0,1-.93-1.85A15.66,15.66,0,0,1,33.19,56V35.37a1.37,1.37,0,0,1,1.54-1.54h1.58a1.36,1.36,0,0,1,1.54,1.54V56a1.36,1.36,0,0,0,1.54,1.54H43.2V62.1Z"/><path class="cls-3" d="M69.23,61.17a11.66,11.66,0,0,1-4.81.93H43.2a2.61,2.61,0,0,1-1.81-.64,2.28,2.28,0,0,1,0-3.27,2.57,2.57,0,0,1,1.81-.64h2.58V42.88a1.36,1.36,0,0,1,1.54-1.54h1.54a1.36,1.36,0,0,1,1.54,1.54v5.39A12.21,12.21,0,0,1,55,43.19a13.24,13.24,0,0,1,7.12-1.81,14,14,0,0,1,4.82.83,12.19,12.19,0,0,1,3.94,2.29A10.67,10.67,0,0,1,73.49,48a10.15,10.15,0,0,1,1,4.43v.46A5,5,0,0,0,76,56.44a6.47,6.47,0,0,0,4.18,1.11V62.1a11,11,0,0,1-4.74-.89,6.41,6.41,0,0,1-2.84-2.58A8.55,8.55,0,0,1,69.23,61.17Zm0-11.4a5.79,5.79,0,0,0-1.61-2,7.94,7.94,0,0,0-2.45-1.29,9.84,9.84,0,0,0-3.1-.46,12.11,12.11,0,0,0-8.06,3,11.26,11.26,0,0,0-2.58,3.35,9.71,9.71,0,0,0-1.06,4.16v1H64.42a5.64,5.64,0,0,0,4.1-1.27,5.19,5.19,0,0,0,1.29-3.85A6,6,0,0,0,69.23,49.77Z"/><path class="cls-3" d="M80.17,62.1a2.56,2.56,0,0,1-1.77-.66,2.15,2.15,0,0,1,0-3.23,2.56,2.56,0,0,1,1.77-.66h3.62q-2.73-1.77-2.73-5.81a10.19,10.19,0,0,1,.88-4.31,9.77,9.77,0,0,1,2.43-3.3A10.73,10.73,0,0,1,88,42a13.82,13.82,0,0,1,4.52-.73,16.49,16.49,0,0,1,3.08.29,22.38,22.38,0,0,1,3.24.91,1.3,1.3,0,0,1,1.08,1.27,1.87,1.87,0,0,1,0,.32,3.16,3.16,0,0,1-.12.37l-.5,1.27a1.35,1.35,0,0,1-1.64,1,2.07,2.07,0,0,1-.36-.11A14.67,14.67,0,0,0,94.92,46a13,13,0,0,0-2.23-.19,8.81,8.81,0,0,0-2.78.42,6.83,6.83,0,0,0-2.21,1.2,5.08,5.08,0,0,0-1.46,1.9,6,6,0,0,0-.52,2.56,5.16,5.16,0,0,0,1.69,4.31,8.36,8.36,0,0,0,5.24,1.35h6.77A1.36,1.36,0,0,1,101,59.09v1.47a1.36,1.36,0,0,1-1.54,1.54Z"/><path class="cls-3" d="M18.13,15.5v-.06a8.6,8.6,0,0,1,8.79-8.59,8.52,8.52,0,0,1,8.75,8.53v.06A8.6,8.6,0,0,1,26.86,24,8.51,8.51,0,0,1,18.13,15.5Zm13.77,0v-.06a5.08,5.08,0,0,0-5-5.29,4.93,4.93,0,0,0-5,5.23v.06a5.07,5.07,0,0,0,5,5.27A4.94,4.94,0,0,0,31.9,15.5Z"/><path class="cls-3" d="M38.88,22a1.43,1.43,0,0,1-.72-1.31,1.51,1.51,0,0,1,1.53-1.52,1.6,1.6,0,0,1,.81.22A8.66,8.66,0,0,0,45.23,21c1.62,0,2.56-.68,2.56-1.77v-.06c0-1.28-1.75-1.72-3.68-2.31C41.68,16.13,39,15.13,39,12v-.07c0-3.11,2.59-5,5.86-5A11.33,11.33,0,0,1,50,8.25a1.59,1.59,0,0,1,.9,1.43,1.52,1.52,0,0,1-1.56,1.53A1.48,1.48,0,0,1,48.6,11,8.9,8.9,0,0,0,44.73,9.9c-1.46,0-2.3.68-2.3,1.62v.06c0,1.21,1.77,1.71,3.7,2.34,2.4.74,5.11,1.83,5.11,4.79v.06c0,3.46-2.68,5.17-6.1,5.17A11.21,11.21,0,0,1,38.88,22Z"/><path class="cls-3" d="M54,18.9v-.06c0-3.55,2.77-5.3,6.79-5.3a13.62,13.62,0,0,1,4.42.69v-.41c0-2.33-1.44-3.58-4.08-3.58a9.88,9.88,0,0,0-3.65.65,1.83,1.83,0,0,1-.59.1,1.57,1.57,0,0,1-1.59-1.56,1.64,1.64,0,0,1,1-1.49,14,14,0,0,1,5.3-1A7.35,7.35,0,0,1,67.1,8.81a6.83,6.83,0,0,1,1.77,5.07V22A1.8,1.8,0,0,1,67,23.79,1.7,1.7,0,0,1,65.2,22.2v-.62A6.69,6.69,0,0,1,59.84,24C56.76,24,54,22.2,54,18.9Zm11.27-1.18V16.59a10.55,10.55,0,0,0-3.74-.65c-2.43,0-3.86,1-3.86,2.74v.06c0,1.59,1.4,2.5,3.21,2.5C63.39,21.24,65.29,19.8,65.29,17.72Z"/><path class="cls-3" d="M73.39,8.9A1.86,1.86,0,0,1,75.26,7a1.89,1.89,0,0,1,1.9,1.9v1.68C78,8.53,79.65,7,81.3,7a1.75,1.75,0,0,1,1.87,1.87,1.78,1.78,0,0,1-1.5,1.81c-2.68.46-4.51,2.52-4.51,6.41v4.86a1.89,1.89,0,0,1-1.9,1.87,1.85,1.85,0,0,1-1.87-1.87Z"/><path class="cls-3" d="M86.25,2.61A1.85,1.85,0,0,1,88.12.74,1.88,1.88,0,0,1,90,2.61v7.1a5.94,5.94,0,0,1,5.14-2.86c3.7,0,5.85,2.49,5.85,6.29v8.78a1.84,1.84,0,0,1-1.87,1.87,1.87,1.87,0,0,1-1.9-1.87V14.29c0-2.55-1.27-4-3.51-4S90,11.8,90,14.35v7.57a1.89,1.89,0,0,1-3.77,0Z"/></g></g></svg>